<svg xmlns="http://www.w3.org/2000/svg">
  <defs>
    <symbol viewBox="0 0 24 24" id="icon-facebook">
      <path d="M17 3H7a4 4 0 00-4 4v10a4 4 0 004 4h5.621v-6.961h-2.343v-2.725h2.343V9.309c0-2.324 1.421-3.591 3.495-3.591.699-.002 1.397.034 2.092.105v2.43H16.78c-1.13 0-1.35.534-1.35 1.322v1.735h2.7l-.351 2.725h-2.365V21H17a4 4 0 004-4V7a4 4 0 00-4-4z"></path>
    </symbol>
    <symbol viewBox="0 0 24 24" id="icon-instagram-new">
      <path d="M8 3a5 5 0 00-5 5v8a5 5 0 005 5h8a5 5 0 005-5V8a5 5 0 00-5-5H8zm10 2a1 1 0 110 2 1 1 0 010-2zm-6 2a5 5 0 11-.001 10.001A5 5 0 0112 7zm0 2a3 3 0 00-3 3 3 3 0 003 3 3 3 0 003-3 3 3 0 00-3-3z"></path>
    </symbol>
    <symbol viewBox="0 0 24 24" id="icon-twitter">
      <path d="M22 3.999c-.78.463-2.345 1.094-3.265 1.276-.027.007-.049.016-.075.023A4.5 4.5 0 0011 8.499c0 .131-.011.372 0 .5-3.353 0-5.905-1.756-7.735-4-.199.5-.286 1.29-.286 2.032 0 1.401 1.095 2.777 2.8 3.63-.314.081-.66.139-1.02.139A2.686 2.686 0 013 10.183v.051c0 1.958 2.078 3.291 3.926 3.662-.375.221-1.131.243-1.5.243-.26 0-1.18-.119-1.426-.165.514 1.605 2.368 2.507 4.135 2.539-1.382 1.084-2.341 1.486-5.171 1.486H2C3.788 19.145 6.065 20 8.347 20 15.777 20 20 14.337 20 8.999l-.005-.447c0-.018.005-.035.005-.053 0-.027-.008-.053-.008-.08a18.384 18.384 0 00-.009-.329A8.217 8.217 0 0022 5.999a8.07 8.07 0 01-2.32.636c.834-.5 2.019-1.692 2.32-2.636z"></path>
    </symbol>
    <symbol viewBox="0 0 24 24" id="icon-youtube-play">
      <path d="M21.582 6.186a2.506 2.506 0 00-1.768-1.768C18.254 4 12 4 12 4s-6.254 0-7.814.418c-.86.23-1.538.908-1.768 1.768C2 7.746 2 12 2 12s0 4.254.418 5.814c.23.86.908 1.538 1.768 1.768C5.746 20 12 20 12 20s6.254 0 7.814-.418a2.504 2.504 0 001.768-1.768C22 16.254 22 12 22 12s0-4.254-.418-5.814zM10 15.464V8.536L16 12l-6 3.464z"></path>
    </symbol>
  </defs>
</svg>