<?xml version="1.0" standalone="no"?>
<!DOCTYPE svg PUBLIC "-//W3C//DTD SVG 20010904//EN"
 "http://www.w3.org/TR/2001/REC-SVG-20010904/DTD/svg10.dtd">
<svg version="1.0" xmlns="http://www.w3.org/2000/svg"
 width="512.000000pt" height="512.000000pt" viewBox="0 0 512.000000 512.000000"
 preserveAspectRatio="xMidYMid meet">
<metadata>
Created by potrace 1.14, written by Peter Selinger 2001-2017
</metadata>
<g transform="translate(0.000000,512.000000) scale(0.100000,-0.100000)"
fill="#000000" stroke="none">
<path d="M361 3916 c-7 -8 -16 -42 -21 -77 -20 -139 -114 -252 -243 -290 -40
-12 -78 -28 -85 -37 -18 -23 -18 -651 0 -674 7 -9 37 -24 67 -33 101 -33 181
-142 181 -245 0 -103 -80 -212 -181 -245 -30 -9 -60 -24 -66 -33 -19 -23 -19
-651 0 -674 6 -9 44 -25 84 -37 129 -38 223 -151 243 -290 5 -35 14 -69 21
-77 10 -12 313 -14 2200 -14 l2189 0 14 22 c7 13 16 47 19 75 15 137 117 251
257 288 86 23 81 -4 78 373 l-3 336 -25 12 c-115 51 -147 72 -177 117 -63 93
-63 201 0 294 30 45 62 66 177 117 l25 12 3 336 c3 377 8 350 -78 373 -140 37
-242 151 -257 288 -3 28 -12 62 -19 75 l-14 22 -2189 0 c-1887 0 -2190 -2
-2200 -14z m3993 -372 c14 -14 16 -117 16 -984 0 -867 -2 -970 -16 -984 -14
-14 -190 -16 -1794 -16 l-1779 0 -15 22 c-14 20 -16 129 -16 978 0 849 2 958
16 978 l15 22 1779 0 c1604 0 1780 -2 1794 -16z"/>
<path d="M1042 2943 c-32 -27 -37 -64 -12 -96 19 -24 28 -27 85 -27 l64 0 3
-280 c3 -272 4 -280 25 -301 14 -14 33 -22 54 -21 63 2 63 3 69 315 l5 282 68
5 c53 4 72 10 83 24 21 29 17 70 -9 94 -22 21 -32 22 -219 22 -172 0 -198 -2
-216 -17z"/>
<path d="M1611 2934 c-20 -26 -21 -38 -21 -348 1 -249 4 -325 14 -338 32 -43
103 -38 125 8 7 17 11 126 11 340 l0 315 -25 24 c-33 34 -77 33 -104 -1z"/>
<path d="M2015 2945 c-51 -18 -110 -81 -124 -131 -14 -52 -14 -407 0 -459 15
-52 82 -119 134 -134 157 -43 305 42 308 175 0 60 -24 86 -77 82 -42 -3 -41
-2 -80 -88 -10 -21 -20 -26 -60 -28 -84 -6 -86 -1 -86 223 0 221 1 225 83 225
36 0 49 -5 61 -22 9 -12 16 -30 16 -40 0 -51 89 -78 125 -38 23 25 23 95 1
137 -21 43 -79 90 -123 102 -52 15 -130 13 -178 -4z"/>
<path d="M2472 2937 c-22 -23 -22 -28 -22 -344 0 -177 3 -329 6 -338 17 -44
111 -48 130 -7 4 9 10 69 13 132 4 81 10 115 18 115 7 0 52 -58 100 -130 49
-71 99 -135 112 -142 43 -21 100 15 101 64 0 12 -48 94 -106 182 l-106 161 81
100 c45 55 88 112 96 126 24 47 -12 103 -66 104 -30 0 -54 -24 -159 -158 l-65
-82 -5 101 c-5 91 -7 103 -29 120 -32 26 -73 24 -99 -4z"/>
<path d="M3035 2936 l-25 -25 0 -315 c0 -214 4 -323 11 -340 17 -38 58 -46
219 -46 162 0 206 9 221 47 14 37 11 52 -16 78 -23 24 -29 25 -155 25 l-130 0
0 80 0 80 59 0 c53 0 62 3 81 27 44 56 1 113 -86 113 l-54 0 0 80 0 80 134 0
c145 0 159 5 172 57 5 17 0 33 -13 51 l-20 27 -187 3 -186 2 -25 -24z"/>
<path d="M3532 2937 c-27 -29 -28 -71 -2 -97 16 -16 33 -20 85 -20 l65 0 0
-274 c0 -151 3 -282 6 -291 10 -26 62 -44 94 -33 47 16 50 39 50 328 l0 270
64 0 c58 0 67 3 86 27 23 30 21 65 -7 96 -14 15 -38 17 -218 17 -198 0 -202 0
-223 -23z"/>
</g>
</svg>
